<svg xmlns="http://www.w3.org/2000/svg" width="573.472" height="72.755" viewBox="0 0 573.472 72.755"><g fill="#1F5D91"><path d="M19.52 35.48v6.36h7.919v-5.28h9.899v15.18H3.5v-9.9h3.24v-18.6H3.56v-9.899h33.778v14.04h-9.899v-4.14H19.52v5.22h7.919v7.02H19.52zM74.778 39.68c0 2.4 1.56 2.52 3.24 2.16v9.66s-2.459 1.26-6.899 1.26c-4.14 0-6.48-1.68-7.74-3.84-3.24 2.94-7.68 3.84-10.26 3.84-6.72 0-13.079-4.8-13.079-16.859s6.419-16.859 13.139-16.859c3.06 0 6.18 1.02 8.82 2.76v-6h-3.24v-9.9h16.02V39.68zM61.999 43.1V28.641c-2.82-1.26-9.18-2.88-9.18 7.26 0 9.179 5.52 8.939 9.18 7.199zM120.018 51.5s-2.46 1.26-6.9 1.26c-4.74 0-7.14-2.16-8.219-4.74-1.68 1.98-5.04 4.74-10.38 4.74-6.72 0-10.859-4.38-10.859-11.52V29.841h-3.24v-9.9H96.5V38.42c0 2.16 1.56 3.3 3.36 3.3 1.62 0 3-.78 4.14-1.62V29.841h-3.24v-9.9h16.02V39.68c0 2.4 1.56 2.52 3.24 2.16v9.66zM138.498 19.041c9.479 0 15.179 4.02 15.179 4.02v9.12h-9.959s-.3-4.02-3.9-4.02c-2.94 0-4.32 2.64-4.32 6.96 0 5.04 3.48 7.68 7.14 7.68 4.86 0 9.54-2.76 9.54-2.76l2.52 8.58s-5.28 4.14-14.339 4.14c-10.26 0-17.639-5.88-17.639-16.859-.001-10.501 6.358-16.861 15.778-16.861zM157.099 36.8c0-13.14 8.879-17.759 19.559-17.759 8.28 0 15.359 3.36 15.359 3.36V39.68c0 2.4 1.56 2.52 3.24 2.16v9.66s-2.46 1.26-6.9 1.26c-3.959 0-6.24-1.5-7.56-3.48-2.94 2.34-6.36 3.48-9.6 3.48-7.319 0-14.098-4.8-14.098-15.96zm22.138-8.279s-1.68-.84-3.66-.84c-2.64 0-5.7 1.62-5.7 8.1 0 6.54 2.52 8.22 5.28 8.22 1.38 0 2.88-.42 4.08-.9v-14.58zM210.677 40.22c0 4.02 5.04 3.48 7.02 2.58v8.4s-3.84 1.62-8.1 1.62c-7.62 0-11.4-4.8-11.4-12.06V29.841h-1.74v-9.9h1.44c5.64 0 6.6-4.86 6.6-4.86h6.18v4.86h7.02v9.9h-7.02V40.22zM220.698 41.84h3.24v-12h-3.24v-9.9h16.019v21.9h3.24v9.899h-19.259V41.84zm9.539-38.638c4.2 0 7.56 3.42 7.56 7.56 0 4.26-3.36 7.5-7.56 7.5-4.08 0-7.38-3.24-7.38-7.5 0-4.14 3.3-7.56 7.38-7.56zM259.457 19.101c9.9 0 17.939 5.28 17.939 16.799 0 11.16-8.04 16.919-17.939 16.919-9.899 0-17.939-5.82-17.939-16.919 0-11.279 8.039-16.799 17.939-16.799zm-.121 24.839c2.88 0 5.22-2.46 5.22-8.04 0-5.7-2.16-8.16-5.22-8.16-2.88 0-5.16 2.46-5.16 8.16.001 5.58 2.281 8.04 5.16 8.04zM304.216 32.84c0-1.8-1.201-2.88-2.821-2.88-2.1 0-4.319 1.38-5.279 2.04v9.84h3.419v9.899h-19.439V41.84h3.3v-12h-3.3v-9.9h16.02v3.66c2.34-2.16 6.18-4.56 11.579-4.56 6.78 0 9.36 6.06 9.36 10.8v12h3.239v9.899h-19.438V41.84h3.36v-9zM341.595 11.241c12.659 0 23.398 10.68 23.398 24.539 0 6.66-1.5 13.62-8.879 18.06 1.26 1.5 3.539 2.4 6.119 2.4 4.92 0 8.939-3.96 8.939-3.96l3 3 4.74 7.26s-4.859 8.58-15.119 8.58c-12.24 0-17.399-7.62-21.84-14.339-11.879-1.8-20.759-10.44-20.759-23.999.002-14.641 9.661-21.541 20.401-21.541zm-1.019 41.519c4.439 5.52 7.319 14.159 20.219 14.159 9.6 0 13.74-7.319 13.74-7.319l-3.602-5.46s-3.359 3.3-8.699 3.3c-5.52 0-8.459-3.24-10.799-7.02 7.379-4.14 9.359-11.16 9.359-17.639 0-15-10.859-20.339-19.199-20.339-10.08 0-19.199 6.54-19.199 20.339 0 12.359 7.439 19.259 18.18 19.979zm5.159-11.28c-2.04-2.34-5.28-3.66-9.06-2.82 0 0-.54-2.46-.54-6.479 0-4.74 1.38-10.8 5.46-10.8 3.959 0 5.459 5.94 5.459 10.8 0 3.539-.359 6.659-1.319 9.299zm-.96-15.899h-.18c-3.18 0-4.26 5.4-4.26 9.6 0 .66 0 1.44.06 2.16 1.8.24 3.36.96 4.739 1.98.541-2.16.721-4.5.721-7.14 0-2.221-.359-4.681-1.08-6.6z"/><path d="M409.093 55.22s-3.42 1.74-8.1 1.74c-4.26 0-7.02-1.74-8.52-3.9-2.039 1.92-5.279 3.9-10.08 3.9-8.699 0-15.059-6.66-15.059-15.719v-7.2h-.24l-3-3v-12.3h18.479l1.861 1.86v-1.86h18.418l3 3V40.4c.061 0 .24-.06.24-.06l3 3v11.88zm-7.439-15.54V19.941h-16.02v9.9h3.24V40.1c-1.141.84-2.52 1.62-4.141 1.62-1.799 0-3.359-1.14-3.359-3.3V19.941h-16.08v9.9h3.24V41.24c0 7.14 4.141 11.52 10.859 11.52 5.34 0 8.701-2.76 10.381-4.74 1.08 2.58 3.479 4.74 8.219 4.74 4.439 0 6.9-1.26 6.9-1.26v-9.66c-1.679.36-3.239.24-3.239-2.16zm-13.979-.18v-5.46h-.24l-1.861-1.86v8.28a5.564 5.564 0 0 0 2.101-.96z"/><path d="M407.896 40.64h3.238v-6.6h-.238l-3-3V18.741h6.479c-2.34-1.86-4.32-4.38-4.32-7.98 0-4.8 3.84-8.759 8.58-8.759 5.82 0 11.76 6.359 11.76 11.759 0 2.64-1.02 4.62-2.699 6.36l1.619 1.62V40.64h.24l3 3v12.299h-21.658l-3-3V40.64zm1.199 11.1h19.26v-9.9h-3.24V19.941h-16.02v9.9h3.24v12h-3.24v9.899zm9.539-33.479c4.201 0 7.561-3.24 7.561-7.5 0-4.14-3.359-7.56-7.561-7.56-4.08 0-7.379 3.42-7.379 7.56 0 4.26 3.299 7.5 7.379 7.5z"/><path d="M434.355 55.939l-3-3v-9.06l8.039-7.919h-4.68l-3-3V18.741h29.758l3 3v9.3l-8.34 8.34h6.24l3 3V55.94h-31.017zm26.818-4.199V40.58h-11.34v1.26h-3.779l14.219-14.28v-7.62h-27.359v11.82h10.199v-1.92h4.26l-14.819 14.52v7.38h28.619z"/><path d="M467.175 55.939l-3-3v-9.06l8.039-7.919h-4.68l-3-3V18.741h29.758l3 3v9.3l-8.34 8.34h6.24l3 3V55.94h-31.017zm26.819-4.199V40.58h-11.34v1.26h-3.779l14.219-14.28v-7.62h-27.359v11.82h10.199v-1.92h4.26l-14.819 14.52v7.38h28.619z"/><path d="M536.533 41.36h-2.4l2.641 10.319s-5.82 5.34-16.68 5.34c-12.719 0-23.098-7.86-23.098-21.119s8.699-18.059 18.178-18.059c14.699 0 23.279 9.9 21.359 23.519zm-25.319-4.2h21.18c.898-10.379-3-18.119-17.221-18.119-8.879 0-16.979 4.5-16.979 16.859 0 12.06 8.039 16.919 18.898 16.919 10.32 0 15.359-4.62 15.359-4.62l-2.219-8.759s-5.1 3.3-10.801 3.3c-4.017 0-7.377-1.26-8.217-5.58zm-.121-3.9c.301-4.26 1.98-5.58 4.381-5.58s4.08 1.38 4.08 5.58h-8.461z"/><path d="M555.494 57.02c-9.42 0-16.799-3.3-16.799-3.3l-3-3v-9.9h7.02c-3.541-2.04-7.08-4.92-7.08-11.52 0-7.44 7.68-11.459 15.299-11.459 6.84 0 16.801 2.1 16.801 2.1l3 3V33.86h-6.24c3.959 2.28 7.139 6.36 7.139 11.52-.002 7.2-6.781 11.64-16.14 11.64zm-6.721-28.259c0-1.08 1.381-2.34 3.42-2.34 3.602 0 3.781 3.24 3.781 3.24h10.559v-8.7s-9.119-1.92-15.6-1.92c-7.02 0-14.1 3.6-14.1 10.26 0 13.619 18.359 7.379 18.359 13.319 0 1.38-1.379 2.64-3.42 2.64-3.779 0-4.318-3.24-4.318-3.24h-10.561v7.92s6.42 2.88 15.6 2.88c8.641 0 14.939-3.96 14.939-10.439.001-13.32-18.659-7.921-18.659-13.62z"/></g></svg>